<svg width="1002" height="570" viewBox="0 0 1002 570" fill="none" xmlns="http://www.w3.org/2000/svg">
<circle cx="111" cy="122" r="2" fill="#14CC98" fill-opacity="0.35"/>
<circle cx="665" cy="375" r="2" fill="#14CC98" fill-opacity="0.35"/>
<circle cx="410" cy="354" r="2" fill="#14CC98" fill-opacity="0.35"/>
<circle cx="753.5" cy="153.5" r="3.5" fill="#14CC98" fill-opacity="0.35"/>
<circle cx="839.5" cy="272.5" r="3.5" fill="#14CC98" fill-opacity="0.35"/>
<circle cx="383" cy="509" r="2" fill="#14CC98" fill-opacity="0.35"/>
<circle cx="247" cy="406" r="2" fill="#14CC98" fill-opacity="0.35"/>
<circle cx="969" cy="553" r="2" fill="#14CC98" fill-opacity="0.35"/>
<circle cx="581.5" cy="450.5" r="3.5" fill="#14CC98" fill-opacity="0.35"/>
<circle cx="910.5" cy="72.5" r="3.5" fill="#14CC98" fill-opacity="0.35"/>
<circle cx="537" cy="199" r="2" fill="#14CC98" fill-opacity="0.35"/>
<circle cx="221" cy="276" r="2" fill="#14CC98" fill-opacity="0.35"/>
<circle cx="373" cy="89" r="2" fill="#14CC98" fill-opacity="0.35"/>
<circle cx="339.5" cy="205.5" r="3.5" fill="#14CC98" fill-opacity="0.35"/>
<circle cx="44.5" cy="417.5" r="3.5" fill="#14CC98" fill-opacity="0.35"/>
<circle cx="3.5" cy="195.5" r="3.5" fill="#14CC98" fill-opacity="0.35"/>
<circle cx="195.5" cy="566.5" r="3.5" fill="#14CC98" fill-opacity="0.35"/>
<circle cx="3.5" cy="20.5" r="3.5" fill="#14CC98" fill-opacity="0.35"/>
<circle cx="656.5" cy="43.5" r="3.5" fill="#14CC98" fill-opacity="0.35"/>
<circle cx="179" cy="37" r="2" fill="#14CC98" fill-opacity="0.35"/>
<circle cx="17" cy="565" r="2" fill="#14CC98" fill-opacity="0.35"/>
<circle cx="793" cy="556" r="2" fill="#14CC98" fill-opacity="0.35"/>
<circle cx="954" cy="292" r="2" fill="#14CC98" fill-opacity="0.35"/>
<circle cx="1000" cy="2" r="2" fill="#14CC98" fill-opacity="0.35"/>
</svg>
