<svg width="25" height="26" viewBox="0 0 25 26" fill="none" xmlns="http://www.w3.org/2000/svg">
    <path d="M9.02778 22.0302C8.61573 22.0302 8.21294 22.1459 7.87034 22.3628C7.52774 22.5797 7.26071 22.8879 7.10303 23.2486C6.94535 23.6092 6.90409 24.006 6.98448 24.3889C7.06486 24.7718 7.26328 25.1234 7.55464 25.3995C7.846 25.6755 8.21721 25.8635 8.62134 25.9396C9.02547 26.0158 9.44436 25.9767 9.82504 25.8273C10.2057 25.6779 10.5311 25.4249 10.76 25.1004C10.9889 24.7758 11.1111 24.3942 11.1111 24.0039C11.1111 23.4804 10.8916 22.9784 10.5009 22.6082C10.1102 22.2381 9.58031 22.0302 9.02778 22.0302ZM23.6111 18.0828H6.94444C6.57609 18.0828 6.22282 17.9442 5.96235 17.6974C5.70189 17.4507 5.55556 17.116 5.55556 16.767C5.55556 16.418 5.70189 16.0834 5.96235 15.8366C6.22282 15.5899 6.57609 15.4512 6.94444 15.4512H18.7378C19.6425 15.4485 20.522 15.168 21.2443 14.6519C21.9667 14.1357 22.493 13.4117 22.7444 12.5884L24.9464 5.28662C25.0055 5.09079 25.0158 4.88465 24.9765 4.68441C24.9372 4.48418 24.8493 4.29532 24.7199 4.13271C24.5905 3.9701 24.4229 3.83817 24.2305 3.74732C24.0381 3.65646 23.8261 3.60915 23.6111 3.60912H6.58204C6.29452 2.84248 5.7645 2.17847 5.0642 1.70756C4.3639 1.23664 3.52737 0.981724 2.6686 0.977539H1.38889C1.02053 0.977539 0.667263 1.11617 0.406796 1.36292C0.146329 1.60968 0 1.94436 0 2.29333C0 2.6423 0.146329 2.97697 0.406796 3.22373C0.667263 3.47049 1.02053 3.60912 1.38889 3.60912H2.6686C2.9701 3.61012 3.26315 3.70361 3.50387 3.87561C3.74459 4.0476 3.92002 4.28884 4.0039 4.5632L4.2199 5.27996L4.22024 5.28662L6.49889 12.8421C5.43856 12.9502 4.46232 13.4393 3.7712 14.2088C3.08008 14.9782 2.72669 15.9694 2.78379 16.9783C2.84089 17.9872 3.30413 18.9369 4.07814 19.6319C4.85215 20.3269 5.87799 20.7144 6.94444 20.7144H23.6111C23.9795 20.7144 24.3327 20.5758 24.5932 20.329C24.8537 20.0822 25 19.7476 25 19.3986C25 19.0496 24.8537 18.7149 24.5932 18.4682C24.3327 18.2214 23.9795 18.0828 23.6111 18.0828ZM21.7699 6.2407L20.0738 11.8649C19.99 12.1395 19.8145 12.381 19.5736 12.5531C19.3328 12.7252 19.0395 12.8187 18.7378 12.8196H9.3811L9.02701 11.6457L7.39781 6.2407H21.7699ZM20.1389 22.0302C19.7268 22.0302 19.3241 22.1459 18.9814 22.3628C18.6388 22.5797 18.3718 22.8879 18.2141 23.2486C18.0565 23.6092 18.0152 24.006 18.0956 24.3889C18.176 24.7718 18.3744 25.1234 18.6657 25.3995C18.9571 25.6755 19.3283 25.8635 19.7325 25.9396C20.1366 26.0158 20.5555 25.9767 20.9361 25.8273C21.3168 25.6779 21.6422 25.4249 21.8711 25.1004C22.1 24.7758 22.2222 24.3942 22.2222 24.0039C22.2222 23.4804 22.0027 22.9784 21.612 22.6082C21.2213 22.2381 20.6914 22.0302 20.1389 22.0302Z" fill="#232a28" />
</svg>