<svg width="1664" height="609" viewBox="0 0 1664 609" fill="none" xmlns="http://www.w3.org/2000/svg">
<path d="M176.936 480.594C145.476 481.175 114.383 473.752 86.578 459.021C60.5542 445.292 38.853 424.607 23.8918 399.271C12.2762 380.154 4.68601 358.867 1.58586 336.713C-1.51429 314.559 -0.059016 292.005 5.8626 270.434C11.7842 248.862 22.0475 228.726 36.0237 211.26C49.9999 193.794 67.3945 179.366 87.1426 168.858C114.944 154.106 146.032 146.644 177.501 147.171C201.191 146.872 224.712 151.207 246.738 159.934C261.947 166.235 276.113 174.803 288.755 185.348C290.547 186.853 292.006 188.715 293.038 190.816C294.069 192.916 294.652 195.209 294.748 197.548C294.843 199.886 294.45 202.219 293.593 204.397C292.736 206.575 291.435 208.55 289.771 210.196L248.545 251.874C245.749 254.761 242.007 256.544 238.004 256.897C234 257.25 230.004 256.148 226.746 253.794C221.998 250.19 216.796 247.228 211.273 244.985C200.458 240.876 188.955 238.882 177.388 239.111C164.197 238.895 151.183 242.169 139.664 248.599C128.633 254.777 119.524 263.884 113.347 274.915C106.86 286.659 103.588 299.905 103.859 313.318C103.561 327.021 106.831 340.566 113.347 352.624C119.531 363.814 128.726 373.048 139.889 379.28C151.364 385.618 164.28 388.886 177.388 388.767C189.42 388.984 201.37 386.755 212.515 382.216C218.288 379.769 223.718 376.58 228.666 372.729C231.906 370.369 235.883 369.243 239.879 369.554C243.875 369.864 247.629 371.591 250.466 374.423L291.466 415.084C293.139 416.733 294.45 418.712 295.318 420.895C296.185 423.077 296.589 425.416 296.504 427.764C296.419 430.111 295.847 432.415 294.824 434.53C293.801 436.644 292.35 438.523 290.562 440.046C277.577 451.192 262.996 460.328 247.303 467.153C225.02 476.421 201.066 480.996 176.936 480.594V480.594Z" fill="#232A28"/>
<path d="M321.86 456.536V24.6226C321.86 20.1293 323.645 15.8199 326.822 12.6426C329.999 9.4653 334.309 7.68042 338.802 7.68042H406.571C411.064 7.68042 415.373 9.4653 418.551 12.6426C421.728 15.8199 423.513 20.1293 423.513 24.6226V456.649C423.513 461.143 421.728 465.452 418.551 468.629C415.373 471.807 411.064 473.592 406.571 473.592H338.802C336.568 473.592 334.355 473.15 332.292 472.291C330.229 471.433 328.357 470.175 326.782 468.589C325.207 467.004 323.962 465.123 323.117 463.054C322.272 460.986 321.845 458.771 321.86 456.536ZM545.158 473.479C540.664 473.479 536.355 471.694 533.178 468.516C530.001 465.339 528.216 461.03 528.216 456.536V291.632C528.497 284.279 527.247 276.947 524.544 270.103C521.842 263.259 517.746 257.051 512.516 251.874C507.318 246.792 501.148 242.812 494.374 240.172C487.6 237.533 480.363 236.288 473.097 236.514C463.248 236.338 453.522 238.712 444.86 243.403C436.645 247.894 429.841 254.582 425.207 262.718C423.503 265.749 422.066 268.923 420.915 272.205C420.141 274.454 418.893 276.511 417.255 278.236C415.617 279.96 413.627 281.313 411.421 282.202C409.215 283.09 406.843 283.495 404.467 283.388C402.091 283.281 399.765 282.664 397.648 281.58L389.177 277.401C386.069 275.897 383.495 273.479 381.799 270.471C380.104 267.463 379.367 264.009 379.689 260.572C380.779 241.728 386.148 223.38 395.389 206.921C405.667 188.447 421.034 173.315 439.664 163.323C459.421 152.781 481.542 147.454 503.932 147.849C526.765 147.353 549.349 152.678 569.555 163.323C587.971 173.116 603.242 187.916 613.605 206.017C624.373 225.328 629.792 247.163 629.304 269.268V456.536C629.304 461.03 627.519 465.339 624.342 468.516C621.165 471.694 616.855 473.479 612.362 473.479H545.158Z" fill="#232A28"/>
<path d="M660 456.536V171.455C660 166.962 661.785 162.653 664.963 159.475C668.14 156.298 672.449 154.513 676.943 154.513H744.146C748.64 154.513 752.949 156.298 756.126 159.475C759.304 162.653 761.089 166.962 761.089 171.455V456.65C761.089 461.143 759.304 465.452 756.126 468.63C752.949 471.807 748.64 473.592 744.146 473.592H676.943C674.708 473.592 672.496 473.15 670.433 472.292C668.37 471.433 666.497 470.175 664.922 468.59C663.347 467.004 662.102 465.123 661.257 463.055C660.413 460.986 659.985 458.771 660 456.536Z" fill="#232A28"/>
<path d="M791 591.058V171.455C791 166.962 792.785 162.652 795.963 159.475C799.14 156.298 803.449 154.513 807.943 154.513H875.147C879.64 154.513 883.949 156.298 887.126 159.475C890.304 162.652 892.089 166.962 892.089 171.455V234.141C892.206 235.305 892.206 236.478 892.089 237.643L876.615 310.72C876.164 312.919 876.164 315.185 876.615 317.384L890.733 389.897C890.85 390.986 890.85 392.084 890.733 393.172V591.17C890.733 595.664 888.948 599.973 885.771 603.15C882.594 606.328 878.284 608.112 873.791 608.112H807.943C805.708 608.112 803.496 607.671 801.433 606.812C799.37 605.954 797.497 604.695 795.923 603.11C794.348 601.525 793.102 599.644 792.257 597.576C791.413 595.507 790.985 593.292 791 591.058V591.058ZM976.009 480.03C955.45 480.293 935.086 476.012 916.373 467.492C899.157 459.835 884.131 447.992 872.662 433.043C861.522 418.496 854.816 401.045 853.348 382.781V248.26C854.85 229.568 861.67 211.697 873.001 196.755C884.624 181.483 899.726 169.208 917.05 160.951C935.44 152.126 955.612 147.643 976.009 147.849C1004.11 147.382 1031.76 154.903 1055.75 169.535C1079.2 183.926 1098.39 204.319 1111.32 228.607C1124.58 255.039 1131.48 284.2 1131.48 313.769C1131.48 343.339 1124.58 372.501 1111.32 398.933C1098.37 423.171 1079.24 443.551 1055.86 458.004C1031.86 472.742 1004.17 480.378 976.009 480.03V480.03ZM957.599 388.767C970.582 389.044 983.394 385.764 994.646 379.28C1005.27 372.646 1013.93 363.285 1019.72 352.172C1025.96 340.21 1029.21 326.92 1029.21 313.431C1029.21 299.942 1025.96 286.651 1019.72 274.69C1013.78 263.801 1005.1 254.651 994.533 248.147C983.272 241.842 970.495 238.755 957.599 239.224C944.582 238.966 931.739 242.245 920.439 248.712C909.746 255.055 901.026 264.244 895.251 275.254C889.16 287.26 885.984 300.533 885.984 313.996C885.984 327.458 889.16 340.731 895.251 352.737C901.038 363.768 909.753 372.991 920.439 379.392C931.724 385.884 944.585 389.129 957.599 388.767Z" fill="#232A28"/>
<path d="M1269.94 481.95C1251.09 481.965 1232.32 479.419 1214.15 474.383C1196.44 469.707 1179.46 462.639 1163.66 453.375C1154.17 447.914 1145.18 441.64 1136.78 434.625C1135.03 433.085 1133.62 431.203 1132.63 429.096C1131.63 426.989 1131.08 424.7 1131.01 422.372C1130.93 420.043 1131.34 417.725 1132.19 415.559C1133.05 413.392 1134.34 411.424 1135.99 409.776L1169.87 375.892C1172.84 372.947 1176.8 371.212 1180.97 371.025C1185.15 370.837 1189.24 372.209 1192.46 374.875C1213.31 391.917 1239.52 401.003 1266.44 400.515C1275.36 400.977 1284.26 399.191 1292.31 395.319C1295.2 393.991 1297.64 391.855 1299.34 389.17C1301.05 386.484 1301.94 383.364 1301.91 380.184C1301.99 376.485 1300.96 372.848 1298.94 369.745C1296.93 366.642 1294.03 364.219 1290.61 362.79C1281.23 358.35 1271.43 354.833 1261.36 352.286C1249.39 349.01 1236.74 345.283 1223.64 340.991C1210.6 336.796 1198.07 331.191 1186.25 324.275C1174.39 317.153 1164.46 307.223 1157.34 295.359C1149.22 279.471 1145.38 261.743 1146.19 243.92C1147 226.096 1152.44 208.791 1161.97 193.706C1173.31 177.942 1188.73 165.565 1206.58 157.902C1228.36 148.695 1251.84 144.229 1275.48 144.8C1301.13 144.549 1326.57 149.346 1350.36 158.919C1367.25 165.451 1382.63 175.367 1395.54 188.059C1398.67 191.211 1400.43 195.475 1400.43 199.919C1400.43 204.362 1398.67 208.625 1395.54 211.778L1361.66 246.679C1358.58 249.783 1354.42 251.584 1350.05 251.711C1345.67 251.837 1341.42 250.278 1338.17 247.356C1331.44 241.589 1323.81 236.972 1315.58 233.69C1304.04 228.906 1291.69 226.376 1279.21 226.235C1270.35 225.635 1261.49 227.43 1253.57 231.431C1251.03 232.747 1248.9 234.72 1247.39 237.145C1245.88 239.569 1245.05 242.356 1244.98 245.211C1245.14 248.641 1246.3 251.949 1248.3 254.736C1250.31 257.523 1253.08 259.668 1256.28 260.91C1265.53 265.435 1275.22 268.992 1285.19 271.528C1296.49 274.577 1309.14 278.192 1322.24 282.822C1335.43 287.062 1348 293.024 1359.63 300.555C1371.47 308.237 1381.36 318.559 1388.54 330.712C1396.65 345.738 1400.55 362.674 1399.84 379.732C1400.25 393.968 1397.3 408.101 1391.21 420.977C1385.13 433.854 1376.08 445.109 1364.82 453.826C1341.4 472.575 1309.78 481.95 1269.94 481.95Z" fill="#232A28"/>
<path d="M1422 456.536V171.455C1422 166.962 1423.79 162.653 1426.96 159.475C1430.14 156.298 1434.45 154.513 1438.94 154.513H1506.15C1510.64 154.513 1514.95 156.298 1518.13 159.475C1521.3 162.653 1523.09 166.962 1523.09 171.455V456.65C1523.06 461.134 1521.26 465.426 1518.09 468.596C1514.92 471.767 1510.63 473.562 1506.15 473.592H1438.94C1436.71 473.592 1434.5 473.15 1432.43 472.292C1430.37 471.433 1428.5 470.175 1426.92 468.59C1425.35 467.004 1424.1 465.123 1423.26 463.055C1422.41 460.986 1421.99 458.771 1422 456.536Z" fill="#232A28"/>
<path d="M711.457 110.915C742.086 110.915 766.915 86.0859 766.915 55.4576C766.915 24.8292 742.086 0 711.457 0C680.829 0 656 24.8292 656 55.4576C656 86.0859 680.829 110.915 711.457 110.915Z" fill="#14CC98"/>
<path d="M1608.46 476.754C1639.09 476.754 1663.91 451.925 1663.91 421.297C1663.91 390.668 1639.09 365.839 1608.46 365.839C1577.83 365.839 1553 390.668 1553 421.297C1553 451.925 1577.83 476.754 1608.46 476.754Z" fill="#14CC98"/>
<path d="M1473.46 110.915C1504.09 110.915 1528.92 86.0859 1528.92 55.4576C1528.92 24.8292 1504.09 0 1473.46 0C1442.83 0 1418 24.8292 1418 55.4576C1418 86.0859 1442.83 110.915 1473.46 110.915Z" fill="#14CC98"/>
</svg>
